<svg width="325" height="145" viewBox="0 0 325 145" fill="none" xmlns="http://www.w3.org/2000/svg">
<g filter="url(#filter0_d_2123_2)">
<g filter="url(#filter1_d_2123_2)">
<path d="M40.6465 35.2427C40.6304 9.18913 61.2185 6.72168 68.7961 8.16604C76.3736 9.6104 75.4376 13.8879 75.4376 13.8879C75.4376 13.8879 73.5984 22.2067 69.8178 22.3174C66.0373 22.4282 66.8723 20.8727 63.3296 20.9381C59.787 21.0035 53.9588 26.1711 52.9587 35.2427C52.9966 43.777 57.6001 47.9638 61.8991 47.9638C66.1982 47.9638 67.7069 46.4756 67.7232 43.6724C67.7396 40.8691 66.7912 39.9083 63.9427 39.994C60.7242 39.8513 59.9668 39.0127 59.9067 35.2427C59.8466 31.4727 63.5265 28.9322 66.8164 28.9322H73.5984C76.2257 28.8309 76.9803 29.5551 77.3278 31.8065V51.2334C77.3278 55.542 67.1374 61.0466 61.8991 60.7359C56.6609 60.4251 40.6626 61.2963 40.6465 35.2427Z" fill="white"/>
<path d="M52.1328 11.8198C58.0993 8.20312 65.0098 7.95305 68.7021 8.65674C72.3987 9.36134 73.9062 10.7326 74.5244 11.8159C74.8379 12.3653 74.9406 12.8705 74.9668 13.2329C74.9799 13.4145 74.9735 13.5604 74.9648 13.6567C74.9605 13.7045 74.9555 13.7399 74.9521 13.7612C74.9508 13.7695 74.9499 13.7759 74.9492 13.7798V13.7808C74.9491 13.7815 74.9486 13.783 74.9482 13.7847C74.9475 13.7881 74.9459 13.7933 74.9443 13.8003C74.941 13.8149 74.9366 13.8375 74.9297 13.8667C74.9159 13.9252 74.8943 14.0117 74.8662 14.1226C74.8099 14.3447 74.7249 14.6638 74.6113 15.0474C74.3837 15.816 74.0433 16.8375 73.5889 17.8579C73.1323 18.8831 72.5719 19.8815 71.916 20.6226C71.2581 21.3658 70.5535 21.7959 69.8027 21.8179C68.8913 21.8445 68.2827 21.7698 67.8301 21.6548C67.3803 21.5405 67.062 21.3809 66.7148 21.2007C66.366 21.0196 65.9766 20.8114 65.4414 20.6606C64.905 20.5096 64.2425 20.421 63.3203 20.438C61.3431 20.4745 58.8768 21.9047 56.8066 24.3931C54.7177 26.904 52.9725 30.5568 52.4619 35.188L52.459 35.2163V35.2446C52.4976 43.9429 57.2257 48.4634 61.8994 48.4634C64.0867 48.4633 65.6773 48.0891 66.7266 47.2622C67.8044 46.4127 68.2149 45.1665 68.2236 43.6753C68.232 42.2463 68.0018 41.1231 67.2578 40.3931C66.5186 39.6679 65.3977 39.454 63.96 39.4937C62.3538 39.422 61.5671 39.1741 61.1201 38.6528C60.6523 38.1073 60.4365 37.1342 60.4062 35.2349C60.379 33.5279 61.1953 32.0856 62.4258 31.0571C63.6621 30.0238 65.292 29.4321 66.8164 29.4321H73.6172C74.9113 29.3822 75.5948 29.5484 76.0049 29.8774C76.4047 30.1983 76.6575 30.7649 76.8281 31.8481V51.2339C76.8279 52.1221 76.2934 53.156 75.2871 54.2397C74.2929 55.3105 72.8985 56.3641 71.3252 57.2856C68.1587 59.1405 64.4042 60.3837 61.9287 60.2368C59.2569 60.0783 54.1089 60.213 49.5898 57.2261C45.1191 54.2709 41.1545 48.1645 41.1465 35.2427C41.1385 22.3701 46.2071 15.4119 52.1328 11.8198Z" stroke="black" stroke-opacity="0.1"/>
</g>
<g filter="url(#filter2_d_2123_2)">
<path d="M170.957 62.3205C165.429 62.2058 161.016 66.7129 159.043 69.9705C157.071 73.2281 167.109 73.3863 170.957 73.2237C174.806 73.061 182.053 72.5268 182.08 69.3988C182.107 66.2707 176.105 62.4273 170.957 62.3205Z" fill="url(#paint0_linear_2123_2)"/>
<path d="M170.947 62.8203C173.413 62.8715 176.112 63.8231 178.19 65.1484C179.227 65.8097 180.09 66.5517 180.687 67.2998C181.288 68.0537 181.585 68.7712 181.58 69.3945C181.575 69.9494 181.261 70.4355 180.596 70.876C179.924 71.3207 178.962 71.6693 177.836 71.9365C175.591 72.4692 172.859 72.6423 170.937 72.7236C169.025 72.8044 165.591 72.8047 162.895 72.3857C161.53 72.1738 160.432 71.8654 159.804 71.457C159.496 71.2569 159.357 71.0689 159.311 70.9111C159.268 70.7677 159.274 70.5544 159.471 70.2295C160.428 68.6479 161.984 66.7581 163.966 65.2822C165.947 63.8072 168.326 62.7659 170.947 62.8203Z" stroke="white" stroke-opacity="0.1"/>
</g>
<g filter="url(#filter3_d_2123_2)">
<path d="M123.625 49.6891V5.41011C123.625 1.8724 133.533 1.73424 134.848 3.70972C136.163 5.6852 135.304 15.7801 135.304 19.3406C135.304 22.9011 147.123 22.1979 147.123 19.3406C147.123 16.4832 147.159 5.81124 147.159 3.70972C147.159 1.6082 158.79 1.23735 158.79 3.70972C158.79 6.18209 158.11 45.7606 158.11 49.6891C158.11 53.6176 147.159 53.6785 147.159 49.6891C147.159 45.6997 146.989 34.8283 146.989 34.8283C146.92 31.4101 134.964 30.4408 134.848 35.1939C134.732 39.9471 134.848 45.8216 134.848 49.6891C134.848 53.5567 123.625 52.602 123.625 49.6891Z" fill="white"/>
<path d="M152.982 2.49463C154.411 2.47185 155.816 2.59017 156.848 2.85498C157.367 2.98832 157.756 3.15059 158.004 3.32373C158.248 3.49472 158.29 3.62593 158.29 3.70947C158.29 4.94035 158.12 15.4457 157.95 26.145C157.78 36.8356 157.609 47.7191 157.609 49.689C157.609 50.3939 157.128 51.0002 156.182 51.4575C155.242 51.9116 153.951 52.155 152.633 52.1587C151.314 52.1623 150.026 51.9257 149.087 51.4741C148.144 51.0204 147.659 50.4115 147.659 49.689C147.659 47.6904 147.617 43.972 147.574 40.7563C147.553 39.1478 147.532 37.6632 147.516 36.5815C147.508 36.0409 147.501 35.6005 147.496 35.2954C147.494 35.1431 147.492 35.0244 147.491 34.9438C147.491 34.9037 147.49 34.8728 147.489 34.8521V34.8179L147.474 34.603C147.338 33.5456 146.369 32.7952 145.28 32.3169C144.075 31.7876 142.503 31.4858 140.949 31.4468C139.398 31.4079 137.807 31.6298 136.575 32.1968C135.336 32.7675 134.383 33.7349 134.348 35.1821C134.231 39.9424 134.348 45.8381 134.348 49.689C134.348 50.3506 133.886 50.8862 132.913 51.2642C131.949 51.6389 130.622 51.7899 129.258 51.7319C127.897 51.6741 126.555 51.4108 125.571 51.0005C125.078 50.7949 124.701 50.563 124.455 50.3247C124.213 50.0898 124.125 49.8779 124.125 49.689V5.40967L124.13 5.29736C124.179 4.737 124.594 4.23733 125.419 3.8208C126.29 3.38086 127.5 3.10269 128.787 2.99072C130.069 2.87925 131.384 2.93618 132.447 3.13623C132.979 3.23634 133.433 3.3696 133.783 3.52686C134.142 3.6883 134.343 3.85298 134.432 3.98682C134.544 4.15519 134.658 4.45589 134.756 4.90869C134.852 5.35118 134.924 5.89795 134.976 6.52588C135.078 7.78135 135.094 9.32086 135.069 10.9233C135.044 12.5239 134.978 14.1753 134.918 15.6538C134.858 17.1265 134.804 18.4375 134.804 19.3403C134.804 20.5705 135.832 21.3107 136.984 21.7163C138.171 22.1342 139.716 22.2916 141.229 22.2466C142.743 22.2015 144.277 21.9514 145.45 21.5151C146.035 21.2976 146.56 21.023 146.946 20.6812C147.336 20.3367 147.623 19.8873 147.623 19.3403C147.623 17.9124 147.632 14.5308 147.641 11.2427C147.65 7.95561 147.659 4.7611 147.659 3.70947C147.659 3.70053 147.666 3.59642 147.931 3.42432C148.185 3.25905 148.582 3.09841 149.105 2.9585C150.144 2.68068 151.555 2.51739 152.982 2.49463Z" stroke="black" stroke-opacity="0.1"/>
</g>
<g filter="url(#filter4_d_2123_2)">
<path d="M82.6073 41.4998C83.1689 20.9505 82.6354 15.2714 82.7496 10.1453C82.8637 5.01926 94.1528 4.49302 94.1579 8.71071C94.163 12.9284 94.0081 25.1583 94.0081 35.7809C94.0081 46.4035 106.533 44.8278 106.575 36.0819C106.617 27.336 106.559 11.212 106.575 6.84655C106.592 2.48108 117.874 3.33035 117.772 6.59381C117.67 9.85727 117.542 23.5961 117.136 41.4998C116.729 59.4035 82.0457 62.0491 82.6073 41.4998Z" fill="white"/>
<path d="M112.205 4.35889C113.562 4.39493 114.894 4.66196 115.862 5.09814C116.872 5.55321 117.288 6.09039 117.272 6.57861C117.17 9.84192 117.042 23.6019 116.636 41.4888C116.538 45.7842 114.391 49.1712 111.192 51.5405C107.985 53.9165 103.73 55.2583 99.4893 55.4204C95.2469 55.5826 91.0723 54.5631 88.0068 52.2856C84.9608 50.0224 82.9714 46.4902 83.1074 41.5132C83.3884 31.2327 83.3957 24.6694 83.3467 20.0337C83.2976 15.3859 83.1922 12.7094 83.249 10.1567C83.2729 9.0859 83.873 8.22617 84.8535 7.5835C85.8414 6.93598 87.1784 6.53983 88.5381 6.42236C89.8994 6.30481 91.226 6.47197 92.1895 6.89307C93.1502 7.31312 93.6573 7.93194 93.6582 8.71143C93.6608 10.8173 93.6231 14.9256 93.585 19.8403C93.5469 24.7529 93.5078 30.4675 93.5078 35.7808C93.5078 38.5351 94.3222 40.5641 95.6074 41.8872C96.8922 43.2098 98.6041 43.7801 100.302 43.6938C103.694 43.5213 107.053 40.7314 107.075 36.0845C107.117 27.3564 107.059 11.1884 107.075 6.84814C107.078 6.02523 107.595 5.39923 108.554 4.96143C109.519 4.52053 110.845 4.3228 112.205 4.35889Z" stroke="black" stroke-opacity="0.1"/>
</g>
<g filter="url(#filter5_d_2123_2)">
<path fill-rule="evenodd" clip-rule="evenodd" d="M168.987 18.5765C170.403 13.2446 171.622 8.65127 172.186 6.20184C173.87 -1.10986 186.098 -0.268397 187.909 6.20184C189.721 12.6721 196.708 43.6013 197.55 48.0656C198.393 52.5298 187.327 51.9239 186.098 48.0656C185.525 46.2687 185.416 45.8454 185.359 45.6209C185.349 45.5838 185.341 45.5522 185.332 45.5206C185.282 45.3367 185.216 45.1572 184.765 43.9306L184.739 43.8597C183.7 41.0374 174.023 40.0131 173.157 43.8597C172.719 45.8057 172.538 46.8382 172.399 47.6314C172.264 48.4062 172.168 48.9528 171.911 49.8997C171.392 51.8159 160.689 56.2021 161.833 48.0656C162.594 42.6548 166.177 29.1606 168.987 18.5765ZM175.944 27.9681C175.73 28.9492 175.571 29.681 175.486 29.9483C175.094 31.1799 183.243 32.2214 182.668 29.9483C182.518 29.3525 182.333 28.2353 182.113 26.9092C181.495 23.1766 180.604 17.7893 179.433 17.7193C178.191 17.645 176.714 24.4287 175.944 27.9681Z" fill="white"/>
<path d="M179.984 1.53369C183.361 1.63535 186.604 3.39576 187.428 6.33643C189.235 12.7896 196.218 43.705 197.059 48.1587C197.144 48.6127 197.075 48.9707 196.913 49.2622C196.747 49.5613 196.46 49.8289 196.05 50.0522C195.219 50.5044 193.976 50.7236 192.614 50.687C191.261 50.6506 189.855 50.363 188.727 49.8638C187.581 49.357 186.817 48.6767 186.574 47.9136C186.003 46.1205 185.897 45.7076 185.843 45.4966C185.833 45.4603 185.824 45.4249 185.814 45.3892C185.757 45.1781 185.679 44.9678 185.234 43.7583L185.208 43.687C184.872 42.7735 183.897 42.1094 182.801 41.6646C181.673 41.2072 180.282 40.9261 178.907 40.8599C177.535 40.7938 176.137 40.9401 175.007 41.3735C173.878 41.8065 172.936 42.5616 172.669 43.7495C172.229 45.706 172.046 46.7474 171.906 47.5454C171.771 48.3161 171.679 48.8449 171.429 49.769C171.406 49.854 171.284 50.0487 170.96 50.3228C170.655 50.5802 170.232 50.8577 169.726 51.1226C168.711 51.6532 167.417 52.1054 166.188 52.2563C164.943 52.4092 163.865 52.2422 163.171 51.6685C162.506 51.1187 162.055 50.0758 162.328 48.1353C163.083 42.7629 166.655 29.3095 169.471 18.7046C170.885 13.3779 172.108 8.7737 172.674 6.31396C173.441 2.98119 176.622 1.43255 179.984 1.53369ZM179.463 17.2202C179.068 17.1966 178.77 17.4468 178.58 17.6655C178.376 17.9004 178.191 18.2194 178.021 18.5757C177.678 19.2939 177.344 20.2771 177.031 21.3481C176.405 23.4969 175.839 26.0958 175.455 27.8618C175.292 28.6118 175.165 29.1913 175.08 29.5347L175.01 29.7964C174.861 30.2645 175.17 30.614 175.4 30.7915C175.65 30.9835 175.995 31.1371 176.364 31.2612C177.115 31.5136 178.123 31.6941 179.112 31.7612C180.094 31.8279 181.116 31.7871 181.877 31.5591C182.254 31.446 182.625 31.2704 182.881 30.9849C183.162 30.671 183.265 30.2666 183.153 29.8257C183.009 29.2557 182.828 28.1663 182.606 26.8276C182.298 24.9665 181.918 22.6662 181.466 20.8218C181.241 19.9026 180.992 19.0702 180.715 18.4546C180.577 18.1485 180.421 17.8695 180.239 17.6567C180.085 17.476 179.869 17.2936 179.588 17.2368L179.463 17.2202Z" stroke="black" stroke-opacity="0.1"/>
</g>
<g filter="url(#filter6_d_2123_2)">
<path d="M219.695 0.136232C218.803 0.138028 200.215 -3.51891 198.029 26.9394C195.843 57.3978 231.927 54.6598 230.789 44.4359C229.651 34.2119 224.882 37.6255 219.695 39.6708C214.509 41.7162 210.537 33.3111 210.537 26.9394C210.537 20.5678 211.943 13.0737 219.695 13.6866C227.858 15.9701 230.789 10.7857 230.789 7.507C230.789 4.22832 227.675 1.39825 219.695 0.136232Z" fill="white"/>
<path d="M209.597 2.5498C214.294 -0.151035 218.802 0.571668 219.617 0.629883C223.571 1.2551 226.257 2.26108 227.943 3.47168C229.61 4.66866 230.289 6.05416 230.289 7.50684C230.289 9.01761 229.608 10.9815 227.988 12.2939C226.391 13.5885 223.796 14.3145 219.83 13.2051L219.783 13.1924L219.734 13.1885L219.36 13.1641C217.508 13.0754 215.983 13.4434 214.741 14.1709C213.419 14.9457 212.457 16.1057 211.764 17.4668C210.387 20.1702 210.037 23.7366 210.037 26.9395C210.037 30.2114 211.053 33.9985 212.747 36.7256C213.594 38.0897 214.633 39.2244 215.837 39.8799C217.059 40.5452 218.434 40.7054 219.879 40.1357C220.535 39.8769 221.185 39.5971 221.812 39.3291C222.441 39.0597 223.048 38.8024 223.633 38.583C224.815 38.1396 225.844 37.8758 226.718 37.9502C227.548 38.0209 228.275 38.3996 228.883 39.3584C229.511 40.349 230.011 41.9632 230.292 44.4912C230.537 46.6925 228.791 48.636 225.664 49.8311C222.576 51.0112 218.34 51.3594 214.121 50.4551C209.908 49.5519 205.75 47.4084 202.778 43.6504C199.811 39.8981 197.988 34.488 198.527 26.9756C199.613 11.8494 204.756 5.33313 209.597 2.5498Z" stroke="black" stroke-opacity="0.1"/>
</g>
<g filter="url(#filter7_d_2123_2)">
<path d="M234.9 47.4273C234.9 43.4822 235.308 6.85197 235.309 3.1165C235.311 -0.618968 247.328 -0.176721 247.831 2.45221C248.334 5.08114 246.89 19.6075 247.831 19.3179C248.772 19.0284 258.615 4.80324 258.615 4.80324C260.291 2.70726 261.906 2.20824 266.611 2.43579C271.293 2.42614 273.152 4.55542 271.954 5.97867C270.756 7.40191 256.621 23.8727 256.621 26.5241C256.621 29.1755 265.843 42.3418 264.356 44.7529C262.869 47.164 263.526 46.1471 262.141 48.3473C260.757 50.5474 256.705 53.4195 255.088 47.9895C253.471 42.5595 251.826 40.9471 250.335 37.5123C248.844 34.0776 246.349 34.1105 246.349 37.5123V47.9895C246.349 53.0499 234.9 51.3724 234.9 47.4273Z" fill="white"/>
<path d="M241.387 0.897949C242.883 0.884423 244.381 1.06533 245.521 1.40088C246.092 1.56916 246.549 1.7694 246.867 1.98584C247.191 2.20639 247.312 2.40249 247.34 2.54639C247.453 3.1382 247.462 4.47735 247.411 6.22314C247.361 7.94448 247.257 9.9907 247.167 11.9565C247.077 13.9163 247 15.7996 247.005 17.1763C247.007 17.8603 247.03 18.4423 247.086 18.8521C247.113 19.0488 247.153 19.2516 247.226 19.4116C247.261 19.4893 247.326 19.6082 247.445 19.6997C247.591 19.8114 247.785 19.8546 247.978 19.7954C248.095 19.7592 248.192 19.6918 248.249 19.6479C248.316 19.5963 248.386 19.5335 248.455 19.4663C248.594 19.3312 248.76 19.1509 248.943 18.938C249.312 18.5105 249.78 17.9215 250.31 17.2319C251.37 15.8512 252.692 14.0409 253.981 12.2437C255.272 10.4453 256.534 8.65592 257.472 7.31689C257.941 6.64746 258.329 6.09053 258.601 5.70068C258.736 5.50574 258.843 5.35198 258.915 5.24756C258.951 5.19557 258.978 5.15534 258.997 5.12842C259.003 5.1197 259.008 5.11192 259.012 5.10596C259.802 4.11983 260.545 3.5478 261.62 3.22705C262.734 2.89502 264.239 2.82154 266.587 2.93506L266.6 2.93604H266.612C268.893 2.93134 270.401 3.4504 271.179 4.06299C271.565 4.36722 271.744 4.67075 271.793 4.92041C271.839 5.15562 271.784 5.4044 271.571 5.65674C270.975 6.36484 267.136 10.8454 263.447 15.479C261.603 17.7953 259.791 20.1579 258.438 22.1108C257.762 23.0863 257.194 23.9691 256.793 24.6978C256.593 25.0618 256.429 25.3965 256.314 25.6909C256.204 25.9751 256.121 26.2643 256.121 26.5239C256.121 26.9619 256.302 27.5383 256.551 28.1567C256.808 28.7958 257.171 29.5524 257.594 30.3794C258.438 32.0305 259.553 34.0156 260.606 35.9663C261.666 37.9288 262.668 39.8622 263.312 41.4487C263.634 42.2432 263.858 42.9298 263.959 43.4771C264.065 44.0515 264.013 44.3577 263.931 44.4907C262.434 46.9188 263.103 45.8786 261.718 48.0806C261.401 48.5838 260.924 49.1362 260.364 49.5972C259.802 50.0601 259.185 50.4081 258.592 50.5425C258.013 50.6736 257.465 50.6016 256.973 50.2417C256.465 49.8701 255.954 49.1464 255.567 47.8472C254.748 45.0959 253.919 43.3044 253.106 41.769C252.288 40.2234 251.529 39.0074 250.794 37.313C250.403 36.4111 249.933 35.7091 249.43 35.2251C248.932 34.7461 248.362 34.4458 247.78 34.4487C247.171 34.4519 246.664 34.7868 246.333 35.3364C246.012 35.8698 245.849 36.6102 245.849 37.5122V47.9897C245.849 49.0153 245.291 49.7059 244.352 50.1372C243.386 50.5803 242.052 50.7223 240.673 50.5874C239.298 50.4529 237.941 50.0488 236.943 49.4604C235.928 48.8615 235.4 48.149 235.4 47.4272C235.4 45.4579 235.502 35.3186 235.604 25.1987C235.706 15.0836 235.809 4.98762 235.81 3.1167C235.81 2.50833 236.292 1.95648 237.378 1.53271C238.435 1.12033 239.886 0.911527 241.387 0.897949Z" stroke="black" stroke-opacity="0.1"/>
</g>
<g filter="url(#filter8_d_2123_2)">
<path d="M23.1639 72.5273C19.5265 72.5282 13.7414 75.3073 13.7432 77.9169C13.7449 80.5265 16.5336 82.2916 23.1639 82.4151C29.7943 82.5386 33.4598 80.2337 33.3487 77.9169C33.2375 75.6001 26.8013 72.5265 23.1639 72.5273Z" fill="url(#paint1_linear_2123_2)"/>
<path d="M23.1641 73.0273C24.8747 73.0269 27.3126 73.7606 29.3516 74.7988C30.3658 75.3153 31.2533 75.8933 31.8857 76.4678C32.5391 77.0613 32.8316 77.5696 32.8496 77.9404C32.8908 78.7997 32.2275 79.8145 30.5635 80.6318C28.9245 81.4368 26.4354 81.9758 23.1729 81.915C19.8869 81.8538 17.6223 81.3848 16.1963 80.6533C14.8002 79.9372 14.244 78.9961 14.2432 77.917C14.2429 77.4498 14.5058 76.9047 15.0645 76.3193C15.6156 75.7419 16.4044 75.1792 17.3252 74.6846C19.1738 73.6915 21.4485 73.0277 23.1641 73.0273Z" stroke="white" stroke-opacity="0.1"/>
</g>
<g filter="url(#filter9_d_2123_2)">
<path d="M44.7916 74.141C44.1742 69.5604 52.2011 66.7705 53.9186 66.2871C55.6361 65.8037 60.8316 64.4939 63.2681 68.7935C65.7047 73.0931 45.4091 78.7216 44.7916 74.141Z" fill="url(#paint2_linear_2123_2)"/>
<path d="M54.0537 66.7686C54.9039 66.5293 56.559 66.1034 58.2822 66.2451C59.9856 66.3853 61.7183 67.0731 62.833 69.04C63.0322 69.3916 63.02 69.7577 62.7666 70.1943C62.4986 70.6561 61.9744 71.1602 61.2158 71.6729C59.7069 72.6925 57.435 73.6381 55.0391 74.3164C52.6444 74.9943 50.1781 75.3904 48.2939 75.3428C47.3479 75.3188 46.5908 75.1835 46.0693 74.9473C45.5607 74.7168 45.3341 74.4228 45.2871 74.0742C45.1549 73.0937 45.4784 72.19 46.1143 71.3516C46.7554 70.5062 47.698 69.751 48.7432 69.1025C50.8328 67.8059 53.2199 67.0033 54.0537 66.7686Z" stroke="white" stroke-opacity="0.1"/>
</g>
<g filter="url(#filter10_d_2123_2)">
<path d="M193.151 81.7895C188.901 81.7226 183.48 83.3993 182.992 86.4046C182.505 89.41 190.343 90.4598 193.91 90.2314C197.477 90.003 201.341 89.8098 201.818 87.7833C202.294 85.7568 197.401 81.8565 193.151 81.7895Z" fill="url(#paint3_linear_2123_2)"/>
<path d="M193.143 82.2896C195.134 82.3209 197.322 83.2589 198.962 84.4556C199.779 85.0515 200.435 85.6935 200.854 86.2886C201.286 86.904 201.4 87.3743 201.331 87.6685C201.25 88.014 201.023 88.3084 200.615 88.5659C200.2 88.8287 199.623 89.0344 198.913 89.1938C197.489 89.5133 195.679 89.6177 193.879 89.7329C192.146 89.8439 189.348 89.642 187.057 89.0464C185.908 88.7476 184.931 88.3609 184.282 87.896C183.638 87.4341 183.408 86.9706 183.486 86.4849C183.685 85.2603 184.93 84.1833 186.848 83.4087C188.726 82.65 191.077 82.257 193.143 82.2896Z" stroke="white" stroke-opacity="0.1"/>
</g>
<g filter="url(#filter11_d_2123_2)">
<path fill-rule="evenodd" clip-rule="evenodd" d="M9.13713 60.8459C9.13714 60.8459 9.13712 60.8459 9.13713 60.8459Z" fill="white"/>
<path fill-rule="evenodd" clip-rule="evenodd" d="M4.19187 41.5207C3.94721 25.7911 3.71501 10.8583 4.99166 9.1792C6.7942 6.80951 17.1824 8.01005 25.6137 9.15985C34.1964 11.5154 37.593 13.9706 38.8129 23.0151C38.6426 31.9319 32.9525 40.0054 31.3133 40.7626C30.0228 41.3585 35.8477 50.5849 38.5042 54.7926L38.5114 54.8041C39.2256 55.935 39.709 56.7008 39.761 56.8345C40.0052 57.4649 39.2368 59.9773 36.5442 60.9474C33.6571 62.0209 29.403 60.9615 28.344 60.6978C28.2032 60.6627 28.1187 60.6417 28.1017 60.6417C27.9568 60.6417 22.4112 51.2523 19.7916 43.7739C19.794 43.7713 19.7896 43.7739 19.7785 43.7803C19.7153 43.8169 19.4361 43.9786 18.954 44.0396C18.5094 44.0959 17.8919 44.0667 17.1123 43.7739C16.371 43.4952 16.3246 46.4975 16.2695 50.0664C16.1926 55.038 16.0984 61.1099 14.086 60.9474C12.6939 60.8352 10.8506 60.8407 9.14627 60.8459L9.13713 60.8459C6.61339 60.8532 4.39569 60.8596 4.39569 60.48C4.39526 54.6079 4.29261 48.0026 4.19205 41.5317L4.19187 41.5207ZM16.8741 21.0066C16.0636 21.0204 16.0653 32.0441 16.4901 32.7609C16.8159 33.3107 18.4609 33.2914 20.1844 33.2711C20.7065 33.265 21.2358 33.2588 21.7378 33.2683C28.223 33.0202 30.0302 21.0066 21.7378 21.0066C21.7378 21.0066 17.6842 20.9933 16.8741 21.0066Z" fill="white"/>
<path d="M7.8623 8.50977C9.17626 8.31378 10.8716 8.27624 12.7979 8.34961C16.6375 8.49586 21.307 9.07671 25.5156 9.65039C29.7808 10.823 32.6538 11.9992 34.624 13.9355C36.5783 15.8562 37.7058 18.5918 38.3105 23.041C38.2202 27.3886 36.7904 31.5473 35.1689 34.7217C34.3571 36.311 33.5024 37.6436 32.7559 38.6201C32.3823 39.1087 32.0396 39.5034 31.7471 39.7939C31.4447 40.0942 31.2266 40.2517 31.1035 40.3086C30.857 40.4225 30.7261 40.6346 30.6699 40.8408C30.6178 41.0325 30.6221 41.2386 30.6465 41.4277C30.6957 41.8094 30.8475 42.2831 31.0547 42.8008C31.4734 43.8466 32.1768 45.21 32.9922 46.667C34.6267 49.5876 36.7542 52.958 38.0811 55.0596L38.0889 55.0713C38.4464 55.6373 38.7448 56.1098 38.96 56.457C39.0676 56.6307 39.153 56.7707 39.2139 56.874L39.2949 57.0156C39.2965 57.0222 39.3055 57.0606 39.3037 57.1416C39.3017 57.231 39.2865 57.3494 39.2529 57.4922C39.1858 57.7778 39.0493 58.1334 38.8252 58.5059C38.3791 59.2475 37.6002 60.0351 36.375 60.4766L36.3701 60.4785C35.0361 60.9746 33.3435 60.9883 31.8105 60.8271C30.2906 60.6674 28.9907 60.3438 28.4648 60.2129C28.4376 60.2061 28.4117 60.1993 28.3877 60.1934C28.3482 60.1344 28.2956 60.056 28.2334 59.957C28.0668 59.6921 27.8309 59.3012 27.542 58.8057C26.9644 57.8148 26.179 56.414 25.3164 54.7793C23.5887 51.5051 21.5613 47.313 20.2637 43.6084H20.2617C20.2266 43.5083 20.1617 43.4188 20.0703 43.3574C19.9764 43.2946 19.8851 43.2788 19.8359 43.2744C19.7446 43.2664 19.6739 43.287 19.6592 43.291C19.6333 43.2981 19.6134 43.3056 19.6035 43.3096C19.5835 43.3177 19.5678 43.3254 19.5625 43.3281C19.5505 43.3343 19.5404 43.3405 19.5381 43.3418L19.5283 43.3477C19.4978 43.3653 19.2835 43.4943 18.8916 43.5439C18.5295 43.5898 17.9933 43.5706 17.2881 43.3057C17.1701 43.2614 17.0339 43.2412 16.8906 43.2676C16.7479 43.2939 16.6305 43.3606 16.5391 43.4395C16.3701 43.5852 16.2706 43.7893 16.2061 43.9648C16.0727 44.3278 15.9915 44.8445 15.9355 45.4297C15.822 46.6162 15.7969 48.2828 15.7695 50.0586C15.7309 52.554 15.6881 55.2818 15.4082 57.3652C15.2675 58.4124 15.072 59.2501 14.8125 59.8027C14.5463 60.3694 14.3065 60.4638 14.126 60.4492C12.7084 60.335 10.8415 60.3406 9.14453 60.3457H7.33496C6.77772 60.3415 6.27214 60.3306 5.8457 60.3086C5.42135 60.2867 5.10145 60.2531 4.89453 60.21C4.89105 54.4014 4.79139 47.8953 4.69238 41.5244L4.69141 41.5127C4.56904 33.6455 4.45064 25.9877 4.52148 20.0869C4.55692 17.1356 4.6395 14.6337 4.79199 12.7695C4.86831 11.8366 4.96085 11.0742 5.07129 10.5C5.12651 10.2129 5.18503 9.98134 5.24414 9.80371C5.27466 9.71204 5.30337 9.64213 5.32812 9.58984L5.38965 9.48145C5.54057 9.28321 5.81034 9.08711 6.2373 8.91406C6.66094 8.74238 7.2056 8.60773 7.8623 8.50977ZM16.8662 20.5068H16.8652C16.515 20.513 16.3435 20.7998 16.292 20.8945C16.2178 21.0311 16.1649 21.1984 16.123 21.3643C16.0374 21.7042 15.9693 22.1674 15.915 22.6973C15.8058 23.7642 15.7427 25.1818 15.7188 26.6113C15.6947 28.0427 15.7101 29.4986 15.7578 30.6445C15.7816 31.2166 15.8138 31.7184 15.8545 32.1035C15.8748 32.2952 15.8979 32.4658 15.9248 32.6055C15.9473 32.7224 15.9837 32.8874 16.0596 33.0156C16.2334 33.3091 16.5393 33.4616 16.8057 33.5498C17.0852 33.6424 17.4186 33.6955 17.7676 33.7275C18.4663 33.7918 19.3376 33.7815 20.1904 33.7715C20.714 33.7653 21.2356 33.7592 21.7285 33.7686H21.7422L21.7568 33.7676C25.3509 33.6301 27.5418 30.2585 27.7783 27.0811C27.8981 25.4707 27.531 23.828 26.54 22.5771C25.5375 21.3117 23.9427 20.507 21.7383 20.5068H21.6934C21.6635 20.5067 21.6195 20.506 21.5635 20.5059C21.451 20.5055 21.2891 20.5054 21.0928 20.5049C20.7 20.5038 20.1678 20.5028 19.6104 20.502C18.4986 20.5003 17.2773 20.5001 16.8662 20.5068Z" stroke="black" stroke-opacity="0.1"/>
</g>
<g filter="url(#filter12_d_2123_2)">
<path d="M97.0178 116.913C96.7093 114.612 102.381 114.767 111.239 114.612C120.097 114.457 123.455 116.315 123.622 118.005C123.79 119.696 116.799 120.591 110.495 120.535C104.115 120.122 97.3264 119.213 97.0178 116.913Z" fill="url(#paint4_linear_2123_2)"/>
<path d="M111.248 115.112C115.649 115.035 118.639 115.46 120.531 116.091C121.477 116.407 122.124 116.766 122.536 117.12C122.946 117.471 123.099 117.795 123.125 118.054C123.127 118.07 123.131 118.129 123.013 118.247C122.888 118.371 122.666 118.515 122.327 118.664C121.653 118.96 120.645 119.22 119.401 119.432C116.928 119.853 113.641 120.062 110.513 120.035C107.333 119.828 104.079 119.501 101.589 118.944C100.339 118.664 99.3128 118.334 98.5918 117.95C97.8499 117.555 97.5575 117.172 97.5137 116.846C97.4897 116.668 97.5232 116.542 97.5938 116.435C97.6718 116.317 97.8212 116.184 98.0869 116.052C98.629 115.783 99.5101 115.588 100.745 115.455C103.202 115.19 106.798 115.19 111.248 115.112Z" stroke="white" stroke-opacity="0.1"/>
</g>
<g filter="url(#filter13_d_2123_2)">
<path d="M98.9626 104.725C91.5095 104.557 80.0994 107.103 80.5129 109.895C80.9264 112.687 97.2026 110.768 98.9626 110.732C100.723 110.696 113.807 110.797 113.639 108.474C113.471 106.152 106.992 104.874 98.9626 104.725Z" fill="url(#paint5_linear_2123_2)"/>
<path d="M98.9512 105.225H98.9531C102.95 105.299 106.537 105.654 109.133 106.271C110.434 106.58 111.455 106.948 112.148 107.36C112.857 107.78 113.115 108.177 113.14 108.51C113.141 108.525 113.149 108.632 112.86 108.815C112.581 108.992 112.137 109.164 111.539 109.318C110.353 109.624 108.714 109.828 106.985 109.962C103.534 110.23 99.8498 110.213 98.9521 110.232C98.4925 110.241 97.1119 110.371 95.3555 110.51C93.5784 110.651 91.375 110.807 89.2168 110.875C87.0528 110.942 84.9575 110.92 83.3877 110.713C82.5989 110.61 81.9775 110.462 81.5537 110.276C81.1098 110.081 81.0205 109.907 81.0078 109.822C80.9842 109.662 81.0328 109.457 81.2617 109.189C81.4943 108.916 81.8783 108.623 82.417 108.323C83.4909 107.724 85.0641 107.162 86.9131 106.684C90.6055 105.73 95.2751 105.142 98.9512 105.225Z" stroke="white" stroke-opacity="0.1"/>
</g>
<g filter="url(#filter14_d_2123_2)">
<path d="M4 85.5736C16.4086 89.324 11.9131 90.5295 35.8522 87.5224C59.7914 84.5152 68.9412 67.2799 101.64 63.0399C134.339 58.7998 150.982 75.8062 152.726 76.9254C154.469 78.0445 168.612 93.1331 181.894 97.4652C198.184 101.736 214.608 93.9055 214.908 96.1099C215.208 98.3143 201.327 104.999 201.327 105.184C201.326 105.37 209.345 106.109 225.853 93.7473C242.361 81.3851 236.613 68.6842 229.89 69.5561C223.167 70.428 222.956 71.2728 220.998 73.5148C219.436 78.8939 218.505 80.6689 212.472 79.9096C206.534 79.1623 206.714 78.697 208.081 75.1495L208.148 74.9765C213.888 61.7547 220.998 56.8167 230.759 56.0085C240.52 55.2004 249.762 61.401 251.739 68.8186C253.715 76.2362 249.504 86.9727 243.054 96.1099C235.421 106.923 218.819 113.712 219.123 113.902C219.426 114.091 230.962 115.389 236.224 113.902C236.224 113.902 249.131 108.786 253.105 108.242C257.078 107.698 252.354 127.499 241.38 130.249C230.406 132.999 216.759 136.588 200.173 136.556C184.329 136.526 169.437 130.62 152.726 122.261C136.015 113.902 124.69 100.023 121.382 98.0794C118.074 96.1359 110.558 90.3647 89.5648 94.1159C68.5719 97.867 66.622 102.069 48.3876 103.285C27.8342 102.189 17.5485 99.3308 4 85.5736Z" fill="url(#paint6_linear_2123_2)"/>
<path d="M230.801 56.5068C235.565 56.1124 240.209 57.4287 243.902 59.752C247.6 62.0782 250.308 65.3885 251.256 68.9473C252.208 72.5214 251.68 76.9511 250.083 81.6592C248.49 86.358 245.849 91.2834 242.646 95.8213C238.889 101.142 232.902 105.499 227.853 108.562C225.334 110.089 223.061 111.287 221.434 112.116C220.639 112.521 219.949 112.863 219.523 113.081C219.304 113.193 219.125 113.287 219.004 113.358C218.949 113.391 218.881 113.433 218.825 113.479C218.808 113.493 218.736 113.551 218.684 113.646C218.656 113.695 218.602 113.812 218.623 113.965C218.648 114.144 218.758 114.263 218.857 114.325C218.942 114.378 219.039 114.401 219.059 114.406C219.104 114.418 219.157 114.43 219.213 114.44C219.326 114.462 219.477 114.486 219.658 114.512C220.021 114.564 220.524 114.625 221.131 114.688C222.346 114.813 223.991 114.949 225.791 115.03C229.368 115.192 233.642 115.151 236.359 114.383L236.385 114.376L236.408 114.366L236.41 114.365C236.412 114.365 236.414 114.364 236.417 114.362C236.423 114.36 236.432 114.356 236.444 114.352C236.469 114.342 236.505 114.328 236.553 114.31C236.648 114.272 236.788 114.217 236.968 114.146C237.328 114.006 237.847 113.804 238.481 113.561C239.752 113.073 241.487 112.418 243.345 111.746C245.203 111.074 247.181 110.386 248.94 109.833C250.71 109.277 252.226 108.867 253.173 108.737C253.316 108.718 253.409 108.745 253.479 108.79C253.558 108.84 253.651 108.94 253.738 109.129C253.919 109.518 254.019 110.165 253.992 111.049C253.939 112.798 253.397 115.25 252.383 117.827C251.37 120.4 249.901 123.065 248.021 125.248C246.141 127.432 243.872 129.11 241.259 129.765C230.279 132.516 216.689 136.088 200.174 136.057C184.453 136.026 169.649 130.167 152.949 121.813C144.65 117.662 137.678 112.134 132.36 107.391C129.702 105.019 127.461 102.849 125.67 101.141C124.776 100.288 123.991 99.5479 123.324 98.959C122.664 98.3756 122.094 97.9178 121.636 97.6484C120 96.6873 117.227 94.7144 112.226 93.4766C107.227 92.2396 100.027 91.7388 89.4766 93.624C78.9453 95.5059 73.181 97.5037 67.7939 99.1738C62.4357 100.835 57.4346 102.178 48.3877 102.783C38.1354 102.235 30.4966 101.25 23.7432 98.709C17.4834 96.354 11.9543 92.6507 5.80664 86.6641C7.8497 87.328 9.36067 87.894 10.6807 88.3555C12.3899 88.953 13.7804 89.3757 15.5449 89.5791C19.0386 89.9819 23.9711 89.5189 35.915 88.0186C47.9982 86.5006 56.3574 81.384 65.7041 76.1807C75.0503 70.9776 85.4475 65.6442 101.704 63.5361C117.952 61.4293 130.194 64.6011 138.584 68.4277C147.021 72.276 151.466 76.7099 152.456 77.3457C152.63 77.4575 153.005 77.7816 153.598 78.3213C154.176 78.8486 154.919 79.5417 155.812 80.3652C157.594 82.0073 159.948 84.1415 162.665 86.377C168.089 90.8384 175.005 95.744 181.739 97.9404L181.753 97.9453L181.768 97.9492C190.019 100.112 198.284 99.2065 204.488 98.0537C206.041 97.7652 207.468 97.461 208.732 97.1846C210.001 96.9073 211.099 96.6606 212.01 96.4834C212.929 96.3045 213.613 96.2053 214.066 96.21C214.23 96.2116 214.336 96.227 214.399 96.2432C214.391 96.2695 214.38 96.3045 214.357 96.3486C214.299 96.4654 214.196 96.6144 214.037 96.793C213.719 97.15 213.233 97.5692 212.613 98.0312C211.379 98.9524 209.692 99.9883 207.98 100.971C206.272 101.951 204.553 102.87 203.257 103.557C202.611 103.899 202.066 104.185 201.685 104.392C201.495 104.494 201.339 104.581 201.229 104.646C201.176 104.677 201.124 104.708 201.082 104.737C201.063 104.75 201.032 104.772 201.002 104.8C200.988 104.813 200.959 104.84 200.93 104.878C200.915 104.897 200.826 105.011 200.826 105.184C200.826 105.42 200.981 105.552 201.021 105.585C201.078 105.63 201.132 105.654 201.159 105.665C201.218 105.689 201.278 105.704 201.322 105.713C201.417 105.732 201.537 105.745 201.676 105.753C201.957 105.768 202.361 105.763 202.886 105.712C203.936 105.61 205.491 105.325 207.556 104.646C211.686 103.289 217.865 100.354 226.152 94.1475C234.486 87.9067 237.307 81.4995 237.083 76.666C236.86 71.867 233.572 68.5749 229.826 69.0605C226.465 69.4964 224.65 69.9323 223.424 70.5791C222.182 71.2344 221.566 72.1045 220.622 73.1855L220.549 73.2695L220.519 73.375C220.128 74.7202 219.784 75.8111 219.397 76.6885C219.012 77.5631 218.599 78.1921 218.085 78.6357C217.077 79.5067 215.532 79.7904 212.534 79.4131C211.049 79.2262 209.976 79.0607 209.213 78.8652C208.431 78.6649 208.081 78.4571 207.927 78.2656C207.802 78.1114 207.741 77.883 207.845 77.3877C207.924 77.0088 208.084 76.5482 208.306 75.9609L208.548 75.3291C208.567 75.2787 208.587 75.2275 208.606 75.1758C211.457 68.6097 214.628 64.1471 218.259 61.2266C221.882 58.3124 226 56.9043 230.801 56.5068Z" stroke="white" stroke-opacity="0.1"/>
</g>
<g filter="url(#filter15_d_2123_2)">
<path fill-rule="evenodd" clip-rule="evenodd" d="M259.671 74.4341C261.567 65.4821 265.098 54.78 265.562 53.8189C271.361 40.1443 276.329 33.1483 287.243 23.2765C297.702 14.174 319.184 13.0775 319.964 15.9679C320.743 18.8583 313.221 27.5605 310.663 28.1896C308.104 28.8187 281.237 40.9432 279.105 59.5821C288.328 50.1936 293.555 47.8506 302.856 48.5231C312.158 49.1952 325.634 60.4498 316.476 85.7283C307.318 111.007 285.665 110.379 279.105 109.979C272.544 109.578 253.653 102.849 259.671 74.4341ZM275.45 76.4271C278.242 67.54 286.09 61.4105 293.555 61.9768C301.019 62.5431 305.942 73.9817 302.856 82.0746C299.77 90.1675 291.617 96.5082 283.921 96.0266C276.225 95.545 272.659 85.3146 275.45 76.4271Z" fill="url(#paint7_linear_2123_2)"/>
<path d="M307.31 15.6191C310.67 15.098 313.717 14.9512 315.958 15.1094C317.082 15.1887 317.979 15.3429 318.604 15.5527C318.917 15.6577 319.141 15.7697 319.287 15.877C319.433 15.9842 319.472 16.0628 319.481 16.0977C319.546 16.3388 319.535 16.6936 319.409 17.1699C319.285 17.6387 319.063 18.1828 318.755 18.7793C318.14 19.9719 317.214 21.3216 316.176 22.6133C315.138 23.9036 314 25.1208 312.97 26.0498C312.455 26.5144 311.973 26.9016 311.549 27.1885C311.116 27.4812 310.777 27.6466 310.543 27.7041C310.177 27.7941 309.442 28.0685 308.46 28.4961C307.465 28.9292 306.187 29.5328 304.722 30.2959C301.791 31.8218 298.103 33.9925 294.426 36.7314C287.096 42.1906 279.698 49.9909 278.607 59.5254L278.442 60.9697L279.461 59.9326C284.061 55.2504 287.623 52.3699 291.161 50.7334C294.683 49.1048 298.223 48.6891 302.82 49.0215C307.303 49.3455 312.847 52.232 316.152 58.1426C319.45 64.0403 320.55 73.0151 316.006 85.5576C311.477 98.0581 303.881 104.117 296.631 107.019C289.359 109.929 282.396 109.678 279.135 109.479C275.957 109.285 269.727 107.544 265.041 102.376C260.38 97.2349 257.177 88.6232 260.16 74.5381C261.104 70.0812 262.456 65.1821 263.632 61.2744C264.219 59.3214 264.762 57.618 265.187 56.3447C265.617 55.053 265.913 54.2404 266.012 54.0361L266.018 54.0254L266.022 54.0137C271.792 40.4086 276.716 33.4725 287.571 23.6533C292.697 19.192 300.574 16.6636 307.31 15.6191ZM293.593 61.4785C285.836 60.89 277.814 67.2322 274.974 76.2773C273.546 80.8236 273.739 85.7228 275.29 89.5664C276.842 93.4122 279.792 96.2689 283.891 96.5254C287.885 96.7752 291.961 95.2549 295.417 92.666C298.875 90.0755 301.745 86.3919 303.323 82.2529C304.922 78.0596 304.44 73.0372 302.618 68.998C300.802 64.9713 297.582 61.7812 293.593 61.4785Z" stroke="white" stroke-opacity="0.1"/>
</g>
</g>
<defs>
<filter id="filter0_d_2123_2" x="0" y="0" width="324.021" height="144.557" filterUnits="userSpaceOnUse" color-interpolation-filters="sRGB">
<feFlood flood-opacity="0" result="BackgroundImageFix"/>
<feColorMatrix in="SourceAlpha" type="matrix" values="0 0 0 0 0 0 0 0 0 0 0 0 0 0 0 0 0 0 127 0" result="hardAlpha"/>
<feOffset dy="4"/>
<feGaussianBlur stdDeviation="2"/>
<feComposite in2="hardAlpha" operator="out"/>
<feColorMatrix type="matrix" values="0 0 0 0 0 0 0 0 0 0 0 0 0 0 0 0 0 0 0.25 0"/>
<feBlend mode="normal" in2="BackgroundImageFix" result="effect1_dropShadow_2123_2"/>
<feBlend mode="normal" in="SourceGraphic" in2="effect1_dropShadow_2123_2" result="shape"/>
</filter>
<filter id="filter1_d_2123_2" x="36.6465" y="7.84326" width="44.6816" height="60.9053" filterUnits="userSpaceOnUse" color-interpolation-filters="sRGB">
<feFlood flood-opacity="0" result="BackgroundImageFix"/>
<feColorMatrix in="SourceAlpha" type="matrix" values="0 0 0 0 0 0 0 0 0 0 0 0 0 0 0 0 0 0 127 0" result="hardAlpha"/>
<feOffset dy="4"/>
<feGaussianBlur stdDeviation="2"/>
<feComposite in2="hardAlpha" operator="out"/>
<feColorMatrix type="matrix" values="0 0 0 0 0 0 0 0 0 0 0 0 0 0 0 0 0 0 0.25 0"/>
<feBlend mode="normal" in2="BackgroundImageFix" result="effect1_dropShadow_2123_2"/>
<feBlend mode="normal" in="SourceGraphic" in2="effect1_dropShadow_2123_2" result="shape"/>
</filter>
<filter id="filter2_d_2123_2" x="154.789" y="62.3184" width="31.291" height="18.9473" filterUnits="userSpaceOnUse" color-interpolation-filters="sRGB">
<feFlood flood-opacity="0" result="BackgroundImageFix"/>
<feColorMatrix in="SourceAlpha" type="matrix" values="0 0 0 0 0 0 0 0 0 0 0 0 0 0 0 0 0 0 127 0" result="hardAlpha"/>
<feOffset dy="4"/>
<feGaussianBlur stdDeviation="2"/>
<feComposite in2="hardAlpha" operator="out"/>
<feColorMatrix type="matrix" values="0 0 0 0 0 0 0 0 0 0 0 0 0 0 0 0 0 0 0.25 0"/>
<feBlend mode="normal" in2="BackgroundImageFix" result="effect1_dropShadow_2123_2"/>
<feBlend mode="normal" in="SourceGraphic" in2="effect1_dropShadow_2123_2" result="shape"/>
</filter>
<filter id="filter3_d_2123_2" x="119.625" y="1.9917" width="43.165" height="58.6665" filterUnits="userSpaceOnUse" color-interpolation-filters="sRGB">
<feFlood flood-opacity="0" result="BackgroundImageFix"/>
<feColorMatrix in="SourceAlpha" type="matrix" values="0 0 0 0 0 0 0 0 0 0 0 0 0 0 0 0 0 0 127 0" result="hardAlpha"/>
<feOffset dy="4"/>
<feGaussianBlur stdDeviation="2"/>
<feComposite in2="hardAlpha" operator="out"/>
<feColorMatrix type="matrix" values="0 0 0 0 0 0 0 0 0 0 0 0 0 0 0 0 0 0 0.25 0"/>
<feBlend mode="normal" in2="BackgroundImageFix" result="effect1_dropShadow_2123_2"/>
<feBlend mode="normal" in="SourceGraphic" in2="effect1_dropShadow_2123_2" result="shape"/>
</filter>
<filter id="filter4_d_2123_2" x="78.6006" y="3.85498" width="43.1719" height="60.0815" filterUnits="userSpaceOnUse" color-interpolation-filters="sRGB">
<feFlood flood-opacity="0" result="BackgroundImageFix"/>
<feColorMatrix in="SourceAlpha" type="matrix" values="0 0 0 0 0 0 0 0 0 0 0 0 0 0 0 0 0 0 127 0" result="hardAlpha"/>
<feOffset dy="4"/>
<feGaussianBlur stdDeviation="2"/>
<feComposite in2="hardAlpha" operator="out"/>
<feColorMatrix type="matrix" values="0 0 0 0 0 0 0 0 0 0 0 0 0 0 0 0 0 0 0.25 0"/>
<feBlend mode="normal" in2="BackgroundImageFix" result="effect1_dropShadow_2123_2"/>
<feBlend mode="normal" in="SourceGraphic" in2="effect1_dropShadow_2123_2" result="shape"/>
</filter>
<filter id="filter5_d_2123_2" x="157.748" y="1.02881" width="43.8477" height="59.7808" filterUnits="userSpaceOnUse" color-interpolation-filters="sRGB">
<feFlood flood-opacity="0" result="BackgroundImageFix"/>
<feColorMatrix in="SourceAlpha" type="matrix" values="0 0 0 0 0 0 0 0 0 0 0 0 0 0 0 0 0 0 127 0" result="hardAlpha"/>
<feOffset dy="4"/>
<feGaussianBlur stdDeviation="2"/>
<feComposite in2="hardAlpha" operator="out"/>
<feColorMatrix type="matrix" values="0 0 0 0 0 0 0 0 0 0 0 0 0 0 0 0 0 0 0.25 0"/>
<feBlend mode="normal" in2="BackgroundImageFix" result="effect1_dropShadow_2123_2"/>
<feBlend mode="normal" in="SourceGraphic" in2="effect1_dropShadow_2123_2" result="shape"/>
</filter>
<filter id="filter6_d_2123_2" x="193.934" y="0" width="40.8818" height="59.4663" filterUnits="userSpaceOnUse" color-interpolation-filters="sRGB">
<feFlood flood-opacity="0" result="BackgroundImageFix"/>
<feColorMatrix in="SourceAlpha" type="matrix" values="0 0 0 0 0 0 0 0 0 0 0 0 0 0 0 0 0 0 127 0" result="hardAlpha"/>
<feOffset dy="4"/>
<feGaussianBlur stdDeviation="2"/>
<feComposite in2="hardAlpha" operator="out"/>
<feColorMatrix type="matrix" values="0 0 0 0 0 0 0 0 0 0 0 0 0 0 0 0 0 0 0.25 0"/>
<feBlend mode="normal" in2="BackgroundImageFix" result="effect1_dropShadow_2123_2"/>
<feBlend mode="normal" in="SourceGraphic" in2="effect1_dropShadow_2123_2" result="shape"/>
</filter>
<filter id="filter7_d_2123_2" x="230.9" y="0.396973" width="45.4072" height="58.7397" filterUnits="userSpaceOnUse" color-interpolation-filters="sRGB">
<feFlood flood-opacity="0" result="BackgroundImageFix"/>
<feColorMatrix in="SourceAlpha" type="matrix" values="0 0 0 0 0 0 0 0 0 0 0 0 0 0 0 0 0 0 127 0" result="hardAlpha"/>
<feOffset dy="4"/>
<feGaussianBlur stdDeviation="2"/>
<feComposite in2="hardAlpha" operator="out"/>
<feColorMatrix type="matrix" values="0 0 0 0 0 0 0 0 0 0 0 0 0 0 0 0 0 0 0.25 0"/>
<feBlend mode="normal" in2="BackgroundImageFix" result="effect1_dropShadow_2123_2"/>
<feBlend mode="normal" in="SourceGraphic" in2="effect1_dropShadow_2123_2" result="shape"/>
</filter>
<filter id="filter8_d_2123_2" x="9.74316" y="72.5273" width="27.6084" height="17.8926" filterUnits="userSpaceOnUse" color-interpolation-filters="sRGB">
<feFlood flood-opacity="0" result="BackgroundImageFix"/>
<feColorMatrix in="SourceAlpha" type="matrix" values="0 0 0 0 0 0 0 0 0 0 0 0 0 0 0 0 0 0 127 0" result="hardAlpha"/>
<feOffset dy="4"/>
<feGaussianBlur stdDeviation="2"/>
<feComposite in2="hardAlpha" operator="out"/>
<feColorMatrix type="matrix" values="0 0 0 0 0 0 0 0 0 0 0 0 0 0 0 0 0 0 0.25 0"/>
<feBlend mode="normal" in2="BackgroundImageFix" result="effect1_dropShadow_2123_2"/>
<feBlend mode="normal" in="SourceGraphic" in2="effect1_dropShadow_2123_2" result="shape"/>
</filter>
<filter id="filter9_d_2123_2" x="40.7578" y="65.7168" width="26.7129" height="18.1299" filterUnits="userSpaceOnUse" color-interpolation-filters="sRGB">
<feFlood flood-opacity="0" result="BackgroundImageFix"/>
<feColorMatrix in="SourceAlpha" type="matrix" values="0 0 0 0 0 0 0 0 0 0 0 0 0 0 0 0 0 0 127 0" result="hardAlpha"/>
<feOffset dy="4"/>
<feGaussianBlur stdDeviation="2"/>
<feComposite in2="hardAlpha" operator="out"/>
<feColorMatrix type="matrix" values="0 0 0 0 0 0 0 0 0 0 0 0 0 0 0 0 0 0 0.25 0"/>
<feBlend mode="normal" in2="BackgroundImageFix" result="effect1_dropShadow_2123_2"/>
<feBlend mode="normal" in="SourceGraphic" in2="effect1_dropShadow_2123_2" result="shape"/>
</filter>
<filter id="filter10_d_2123_2" x="178.971" y="81.7876" width="26.8789" height="16.4741" filterUnits="userSpaceOnUse" color-interpolation-filters="sRGB">
<feFlood flood-opacity="0" result="BackgroundImageFix"/>
<feColorMatrix in="SourceAlpha" type="matrix" values="0 0 0 0 0 0 0 0 0 0 0 0 0 0 0 0 0 0 127 0" result="hardAlpha"/>
<feOffset dy="4"/>
<feGaussianBlur stdDeviation="2"/>
<feComposite in2="hardAlpha" operator="out"/>
<feColorMatrix type="matrix" values="0 0 0 0 0 0 0 0 0 0 0 0 0 0 0 0 0 0 0.25 0"/>
<feBlend mode="normal" in2="BackgroundImageFix" result="effect1_dropShadow_2123_2"/>
<feBlend mode="normal" in="SourceGraphic" in2="effect1_dropShadow_2123_2" result="shape"/>
</filter>
<filter id="filter11_d_2123_2" x="0" y="7.81445" width="43.8037" height="61.6045" filterUnits="userSpaceOnUse" color-interpolation-filters="sRGB">
<feFlood flood-opacity="0" result="BackgroundImageFix"/>
<feColorMatrix in="SourceAlpha" type="matrix" values="0 0 0 0 0 0 0 0 0 0 0 0 0 0 0 0 0 0 127 0" result="hardAlpha"/>
<feOffset dy="4"/>
<feGaussianBlur stdDeviation="2"/>
<feComposite in2="hardAlpha" operator="out"/>
<feColorMatrix type="matrix" values="0 0 0 0 0 0 0 0 0 0 0 0 0 0 0 0 0 0 0.25 0"/>
<feBlend mode="normal" in2="BackgroundImageFix" result="effect1_dropShadow_2123_2"/>
<feBlend mode="normal" in="SourceGraphic" in2="effect1_dropShadow_2123_2" result="shape"/>
</filter>
<filter id="filter12_d_2123_2" x="93.0059" y="114.603" width="34.6191" height="13.9346" filterUnits="userSpaceOnUse" color-interpolation-filters="sRGB">
<feFlood flood-opacity="0" result="BackgroundImageFix"/>
<feColorMatrix in="SourceAlpha" type="matrix" values="0 0 0 0 0 0 0 0 0 0 0 0 0 0 0 0 0 0 127 0" result="hardAlpha"/>
<feOffset dy="4"/>
<feGaussianBlur stdDeviation="2"/>
<feComposite in2="hardAlpha" operator="out"/>
<feColorMatrix type="matrix" values="0 0 0 0 0 0 0 0 0 0 0 0 0 0 0 0 0 0 0.25 0"/>
<feBlend mode="normal" in2="BackgroundImageFix" result="effect1_dropShadow_2123_2"/>
<feBlend mode="normal" in="SourceGraphic" in2="effect1_dropShadow_2123_2" result="shape"/>
</filter>
<filter id="filter13_d_2123_2" x="76.502" y="104.717" width="41.1387" height="14.6909" filterUnits="userSpaceOnUse" color-interpolation-filters="sRGB">
<feFlood flood-opacity="0" result="BackgroundImageFix"/>
<feColorMatrix in="SourceAlpha" type="matrix" values="0 0 0 0 0 0 0 0 0 0 0 0 0 0 0 0 0 0 127 0" result="hardAlpha"/>
<feOffset dy="4"/>
<feGaussianBlur stdDeviation="2"/>
<feComposite in2="hardAlpha" operator="out"/>
<feColorMatrix type="matrix" values="0 0 0 0 0 0 0 0 0 0 0 0 0 0 0 0 0 0 0.25 0"/>
<feBlend mode="normal" in2="BackgroundImageFix" result="effect1_dropShadow_2123_2"/>
<feBlend mode="normal" in="SourceGraphic" in2="effect1_dropShadow_2123_2" result="shape"/>
</filter>
<filter id="filter14_d_2123_2" x="0" y="55.9375" width="258.497" height="88.6191" filterUnits="userSpaceOnUse" color-interpolation-filters="sRGB">
<feFlood flood-opacity="0" result="BackgroundImageFix"/>
<feColorMatrix in="SourceAlpha" type="matrix" values="0 0 0 0 0 0 0 0 0 0 0 0 0 0 0 0 0 0 127 0" result="hardAlpha"/>
<feOffset dy="4"/>
<feGaussianBlur stdDeviation="2"/>
<feComposite in2="hardAlpha" operator="out"/>
<feColorMatrix type="matrix" values="0 0 0 0 0 0 0 0 0 0 0 0 0 0 0 0 0 0 0.25 0"/>
<feBlend mode="normal" in2="BackgroundImageFix" result="effect1_dropShadow_2123_2"/>
<feBlend mode="normal" in="SourceGraphic" in2="effect1_dropShadow_2123_2" result="shape"/>
</filter>
<filter id="filter15_d_2123_2" x="254.504" y="14.5488" width="69.5166" height="103.54" filterUnits="userSpaceOnUse" color-interpolation-filters="sRGB">
<feFlood flood-opacity="0" result="BackgroundImageFix"/>
<feColorMatrix in="SourceAlpha" type="matrix" values="0 0 0 0 0 0 0 0 0 0 0 0 0 0 0 0 0 0 127 0" result="hardAlpha"/>
<feOffset dy="4"/>
<feGaussianBlur stdDeviation="2"/>
<feComposite in2="hardAlpha" operator="out"/>
<feColorMatrix type="matrix" values="0 0 0 0 0 0 0 0 0 0 0 0 0 0 0 0 0 0 0.25 0"/>
<feBlend mode="normal" in2="BackgroundImageFix" result="effect1_dropShadow_2123_2"/>
<feBlend mode="normal" in="SourceGraphic" in2="effect1_dropShadow_2123_2" result="shape"/>
</filter>
<linearGradient id="paint0_linear_2123_2" x1="170.435" y1="57.9531" x2="170.435" y2="72.7087" gradientUnits="userSpaceOnUse">
<stop stop-color="#33005E"/>
<stop offset="0.124993" stop-color="#84039B"/>
<stop offset="0.556526" stop-color="#C814BF"/>
<stop offset="0.826923" stop-color="#2026B2"/>
<stop offset="0.913677" stop-color="#1C26B1"/>
<stop offset="1" stop-color="#000F64"/>
</linearGradient>
<linearGradient id="paint1_linear_2123_2" x1="23.5472" y1="68.5828" x2="23.5472" y2="81.9164" gradientUnits="userSpaceOnUse">
<stop stop-color="#33005E"/>
<stop offset="0.124993" stop-color="#84039B"/>
<stop offset="0.556526" stop-color="#C814BF"/>
<stop offset="0.826923" stop-color="#2026B2"/>
<stop offset="0.913677" stop-color="#1C26B1"/>
<stop offset="1" stop-color="#000F64"/>
</linearGradient>
<linearGradient id="paint2_linear_2123_2" x1="54.1144" y1="61.6776" x2="54.1144" y2="75.331" gradientUnits="userSpaceOnUse">
<stop stop-color="#33005E"/>
<stop offset="0.124993" stop-color="#84039B"/>
<stop offset="0.556526" stop-color="#C814BF"/>
<stop offset="0.826923" stop-color="#2026B2"/>
<stop offset="0.913677" stop-color="#1C26B1"/>
<stop offset="1" stop-color="#000F64"/>
</linearGradient>
<linearGradient id="paint3_linear_2123_2" x1="192.41" y1="78.4087" x2="192.41" y2="89.8303" gradientUnits="userSpaceOnUse">
<stop stop-color="#33005E"/>
<stop offset="0.124993" stop-color="#84039B"/>
<stop offset="0.556526" stop-color="#C814BF"/>
<stop offset="0.826923" stop-color="#2026B2"/>
<stop offset="0.913677" stop-color="#1C26B1"/>
<stop offset="1" stop-color="#000F64"/>
</linearGradient>
<linearGradient id="paint4_linear_2123_2" x1="110.315" y1="112.237" x2="110.315" y2="120.236" gradientUnits="userSpaceOnUse">
<stop stop-color="#33005E"/>
<stop offset="0.124993" stop-color="#84039B"/>
<stop offset="0.556526" stop-color="#C814BF"/>
<stop offset="0.826923" stop-color="#2026B2"/>
<stop offset="0.913677" stop-color="#1C26B1"/>
<stop offset="1" stop-color="#000F64"/>
</linearGradient>
<linearGradient id="paint5_linear_2123_2" x1="97.0711" y1="102.049" x2="97.0711" y2="111.068" gradientUnits="userSpaceOnUse">
<stop stop-color="#33005E"/>
<stop offset="0.124993" stop-color="#84039B"/>
<stop offset="0.556526" stop-color="#C814BF"/>
<stop offset="0.826923" stop-color="#2026B2"/>
<stop offset="0.913677" stop-color="#1C26B1"/>
<stop offset="1" stop-color="#000F64"/>
</linearGradient>
<linearGradient id="paint6_linear_2123_2" x1="129.248" y1="23.7912" x2="129.248" y2="132.453" gradientUnits="userSpaceOnUse">
<stop stop-color="#33005E"/>
<stop offset="0.124993" stop-color="#84039B"/>
<stop offset="0.556526" stop-color="#C814BF"/>
<stop offset="0.826923" stop-color="#2026B2"/>
<stop offset="0.913677" stop-color="#1C26B1"/>
<stop offset="1" stop-color="#000F64"/>
</linearGradient>
<linearGradient id="paint7_linear_2123_2" x1="289.262" y1="-23.5471" x2="289.262" y2="105.226" gradientUnits="userSpaceOnUse">
<stop stop-color="#33005E"/>
<stop offset="0.124993" stop-color="#84039B"/>
<stop offset="0.556526" stop-color="#C814BF"/>
<stop offset="0.826923" stop-color="#2026B2"/>
<stop offset="0.913677" stop-color="#1C26B1"/>
<stop offset="1" stop-color="#000F64"/>
</linearGradient>
</defs>
</svg>
